<svg id="Layer_1" data-name="Layer 1" xmlns="http://www.w3.org/2000/svg" viewBox="0 0 264.72 99.04"><defs><style>.cls-1{fill:#0e38b1;}</style></defs><title>Artboard 1</title><path class="cls-1" d="M10,85a21.6,21.6,0,0,1-4.27-.37l-1-.2-.6-.79C1.26,79.9-.3,71.51.35,63.25c.83-10.47,4.91-19.39,11.51-25.12a2.67,2.67,0,1,1,3.5,4C7.89,48.64,6.08,58.42,5.67,63.67,5.09,71,6.47,77,7.85,79.58c7.67.77,32-3.06,41.84-25.21a2.67,2.67,0,0,1,4.87,2.17A47.17,47.17,0,0,1,29,80.9,51.86,51.86,0,0,1,10,85Z"/><path class="cls-1" d="M36.17,95.95l-.75-.36c-.54-.26-5.48-2.78-11.86-11.79a2.67,2.67,0,0,1,4.35-3.08c4.2,5.93,7.62,8.63,9.08,9.6,1.87-.58,6.65-2.48,12.08-8a2.67,2.67,0,1,1,3.8,3.74c-8.33,8.46-15.58,9.7-15.89,9.75Z"/><path class="cls-1" d="M85.66,99l-1.5-.72A50.83,50.83,0,0,1,71.62,89a2.67,2.67,0,0,1,3.76-3.78A49.1,49.1,0,0,0,85,92.72c2.23-1.87,5.71-5,7.13-7.09a2.67,2.67,0,1,1,4.42,3C94,92.37,87.68,97.44,87,98Z"/><path class="cls-1" d="M117.56,79.9a2.67,2.67,0,0,1-2.67-2.66l0-13.92-11.27,0,0,.06H98.57A88,88,0,0,1,46.48,46.61,87.56,87.56,0,0,1,14.81,3.52a2.67,2.67,0,1,1,5.05-1.71,82.88,82.88,0,0,0,78.7,56.25h0c.26,0,.53,0,.79,0l2.18,0,6.53,0h12.13l0,19.24a2.67,2.67,0,0,1-2.66,2.67Z"/><path class="cls-1" d="M14.65,42.86h-.08A32.9,32.9,0,0,1,3.7,41.08l-1-.4-.44-1A33.19,33.19,0,0,1,0,26.23c.29-7,3-17.09,14.45-25.25a2.67,2.67,0,0,1,3.1,4.34C9.89,10.82,5.78,17.86,5.37,26.24A29.27,29.27,0,0,0,6.72,36.45a29.73,29.73,0,0,0,7.93,1.08h.13a26,26,0,0,0,18.1-7.15,2.67,2.67,0,0,1,3.63,3.91A31.62,31.62,0,0,1,14.65,42.86Z"/><path class="cls-1" d="M31.52,65.66a25.34,25.34,0,0,1-4-.27l-1.42-.25-.57-1.32a29,29,0,0,1-1.86-10.57c0-5.68,1.49-14.26,8.7-22.94a2.67,2.67,0,0,1,4.1,3.41c-9.58,11.52-7.62,22.7-6.52,26.56a29.63,29.63,0,0,0,7.85-.62A28.28,28.28,0,0,0,54.92,48.48a2.67,2.67,0,1,1,4.28,3.18A33.87,33.87,0,0,1,38.67,64.92,35.37,35.37,0,0,1,31.52,65.66Z"/><path class="cls-1" d="M62.39,76l-1.08-1.26a35.66,35.66,0,0,1-7.43-24.19,2.67,2.67,0,1,1,5.32.4,30.53,30.53,0,0,0,5.15,18.94c3.45-1.23,11.45-4.73,16-12a2.67,2.67,0,0,1,4.53,2.82C77.83,72,64.56,75.44,64,75.59Z"/><path class="cls-1" d="M97.07,78l-1.36-.64c-.51-.24-12.51-6-16.21-16.3a2.67,2.67,0,1,1,5-1.81c2.32,6.45,9.22,10.93,12.14,12.58,3.88-2.83,9-7.64,9.27-11.09a2.67,2.67,0,1,1,5.32.43c-.61,7.67-11.67,15.18-12.93,16Z"/><path class="cls-1" d="M117,74.48a2.66,2.66,0,0,1-.84-.14A13.4,13.4,0,0,1,107,60.94a2.67,2.67,0,0,1,5.32.33,9.39,9.39,0,0,0,.63,3.45,7.6,7.6,0,0,0,4.94,4.57,2.67,2.67,0,0,1-.84,5.2Z"/><path class="cls-1" d="M98.63,54.07A73.17,73.17,0,0,1,64,45.44a2.67,2.67,0,1,1,2.52-4.7,67.88,67.88,0,0,0,32.12,8l21.67,0V54Z"/><path class="cls-1" d="M57.88,41.18a2.66,2.66,0,0,1-1.54-.49A57.26,57.26,0,0,1,44.91,30.27,2.67,2.67,0,0,1,49.13,27a53.2,53.2,0,0,0,10.3,9.33,2.67,2.67,0,0,1-1.55,4.84Z"/><path d="M137.88,41.74V36.33h8.36V48.86c0,4-2,6-6,6h-4.16c-4,0-6-2-6-6V28c0-4,2-6,6-6h4.07c4,0,6,2,6,6v6.19h-6.38v-5.5a1,1,0,0,0-1.16-1.16h-.92a1,1,0,0,0-1.16,1.16v19.5a1,1,0,0,0,1.16,1.16h1.06a1,1,0,0,0,1.16-1.16V41.74Z"/><path d="M164.36,48.86c0,4-2,6-6,6h-3.93c-4,0-6-2-6-6V22.24h6.47V48.16A1,1,0,0,0,156,49.32h.69a1,1,0,0,0,1.16-1.16V22.24h6.47Z"/><path d="M178.64,22.24V28h-5.55v7.26h5.31V41h-5.31v7.76h5.64v5.78H166.62V22.24Z"/><path d="M196.52,43.45V54.59H190V43.5a1,1,0,0,0-1.16-1.16h-1.62V54.59h-6.47V22.24h9.66c4,0,6,2,6,6v6.24c0,2.77-1,4.16-2.77,4.81C195.69,39.84,196.52,41.09,196.52,43.45Zm-7.67-15.57h-1.57v9h1.57A1,1,0,0,0,190,35.69V29A1,1,0,0,0,188.85,27.88Z"/><path d="M214.4,43.45V54.59h-6.47V43.5a1,1,0,0,0-1.16-1.16h-1.62V54.59h-6.47V22.24h9.66c4,0,6,2,6,6v6.24c0,2.77-1,4.16-2.77,4.81C213.57,39.84,214.4,41.09,214.4,43.45Zm-7.67-15.57h-1.57v9h1.57a1,1,0,0,0,1.16-1.16V29A1,1,0,0,0,206.73,27.88Z"/><path d="M228.59,22.24V28H223v7.26h5.31V41H223v7.76h5.64v5.78H216.57V22.24Z"/><path d="M246.47,43.45V54.59H240V43.5a1,1,0,0,0-1.16-1.16h-1.62V54.59h-6.47V22.24h9.66c4,0,6,2,6,6v6.24c0,2.77-1,4.16-2.77,4.81C245.64,39.84,246.47,41.09,246.47,43.45ZM238.8,27.88h-1.57v9h1.57A1,1,0,0,0,240,35.69V29A1,1,0,0,0,238.8,27.88Z"/><path d="M258.72,54.86h-4.16c-4,0-6-2-6-6V28c0-4,2-6,6-6h4.16c4,0,6,2,6,6V48.86C264.72,52.88,262.74,54.86,258.72,54.86ZM257.1,27.51h-.92A1,1,0,0,0,255,28.66v19.5a1,1,0,0,0,1.16,1.16h.92a1,1,0,0,0,1.16-1.16V28.66A1,1,0,0,0,257.1,27.51Z"/><path d="M141.95,59.25V65h-5.31v7.58h5.08v5.78h-5.08V91.6h-6.47V59.25Z"/><path d="M150.26,91.6h-6.47V59.25h6.47Z"/><path d="M155.85,91.6V65h-3.93V59.25h14.33V65h-3.93V91.6Z"/><path d="M178.08,59.25h5.59V91.6h-6.28L173.32,74l.14,17.56h-5.59V59.25h6.61l3.74,16.08Z"/><path d="M198,59.25V65h-5.55v7.26h5.31v5.78h-5.31v7.76h5.64V91.6H186V59.25Z"/><path d="M215.46,79.91v6c0,4-2,6-6,6h-3.6c-4,0-6-2-6-6V79h6.33v6.28a1,1,0,0,0,1.16,1.16h.6a1,1,0,0,0,1.16-1.16V81.39A2.2,2.2,0,0,0,208,79.31l-5.55-4.11a5.41,5.41,0,0,1-2.59-5.08V65c0-4,2-6,6-6h3.51c4,0,6,2,6,6V70.9H209V65.59a1,1,0,0,0-1.16-1.16h-.51a1,1,0,0,0-1.16,1.16v3a2.2,2.2,0,0,0,1.11,2.08l5.55,4.11A5.32,5.32,0,0,1,215.46,79.91Z"/><path d="M232.84,79.91v6c0,4-2,6-6,6h-3.6c-4,0-6-2-6-6V79h6.33v6.28a1,1,0,0,0,1.16,1.16h.6a1,1,0,0,0,1.16-1.16V81.39a2.2,2.2,0,0,0-1.11-2.08l-5.55-4.11a5.41,5.41,0,0,1-2.59-5.08V65c0-4,2-6,6-6h3.51c4,0,6,2,6,6V70.9h-6.33V65.59a1,1,0,0,0-1.16-1.16h-.51a1,1,0,0,0-1.16,1.16v3a2.2,2.2,0,0,0,1.11,2.08l5.55,4.11A5.32,5.32,0,0,1,232.84,79.91Z"/><path class="cls-1" d="M104.94,96.22l-1.35-.58a39,39,0,0,1-10-6.72,31.38,31.38,0,0,1-8.42-12.29,44.26,44.26,0,0,1-21,18.86L63.1,96,62,95.5a31.44,31.44,0,0,1-9.31-6.8A30.21,30.21,0,0,1,44.4,65.52a2.67,2.67,0,0,1,5.33.3,25.63,25.63,0,0,0,13.4,24.27A38.91,38.91,0,0,0,79.6,75.54a31,31,0,0,0,4-9l5.28.53c0,6.72,2.78,12.72,8.25,17.81A35.64,35.64,0,0,0,104.32,90a42.53,42.53,0,0,0,10.84-14A2.67,2.67,0,0,1,120,78.31a46.08,46.08,0,0,1-13.83,17.07Z"/><path class="cls-1" d="M27.5,40a2.66,2.66,0,0,1-2.14-1.08l-5.06-6.8a2.67,2.67,0,0,1,4.28-3.18l5.06,6.8A2.67,2.67,0,0,1,27.5,40Z"/><path class="cls-1" d="M17.3,41.59a2.66,2.66,0,0,1-2.14-1.08l-5.06-6.8a2.67,2.67,0,0,1,4.28-3.18l5.06,6.8a2.67,2.67,0,0,1-2.14,4.26Z"/><path class="cls-1" d="M17.3,27a2.66,2.66,0,0,1-2.07-1l-1.58-1.93a2.67,2.67,0,0,1,4.13-3.38l1.58,1.93A2.67,2.67,0,0,1,17.3,27Z"/><path class="cls-1" d="M50.3,59.54a2.66,2.66,0,0,1-1.49-.46l-8.15-5.5a2.67,2.67,0,0,1,3-4.42l8.15,5.5a2.67,2.67,0,0,1-1.49,4.88Z"/><path class="cls-1" d="M74.62,69.11a2.66,2.66,0,0,1-.89-.15L66,66.23a2.67,2.67,0,1,1,1.79-5l7.68,2.73a2.67,2.67,0,0,1-.89,5.18Z"/><path class="cls-1" d="M98.72,70.32a2.67,2.67,0,0,1,0-5.33l6.06-.05h0a2.67,2.67,0,0,1,0,5.33l-6.06.05Z"/><path class="cls-1" d="M36.12,58.68a2.65,2.65,0,0,1-1.48-.45l-2.78-1.86a2.67,2.67,0,0,1,3-4.44l2.78,1.86a2.67,2.67,0,0,1-1.48,4.89Z"/><path class="cls-1" d="M21.14,83.42a2.65,2.65,0,0,1-1.56-.51L9.74,75.8a2.67,2.67,0,1,1,3.13-4.32l9.84,7.12a2.67,2.67,0,0,1-1.57,4.83Z"/><path class="cls-1" d="M46.33,89.75a2.66,2.66,0,0,1-1.25-.31l-7.89-4.17a2.67,2.67,0,1,1,2.5-4.71l7.89,4.17a2.67,2.67,0,0,1-1.25,5Z"/><path class="cls-1" d="M33.34,77.69a2.66,2.66,0,0,1-1.61-.55L22,69.73a2.67,2.67,0,0,1,3.23-4.24L35,72.91a2.67,2.67,0,0,1-1.62,4.79Z"/><path class="cls-1" d="M18,65.63A2.66,2.66,0,0,1,16.32,65L11.91,61.3a2.67,2.67,0,0,1,3.44-4.08l4.41,3.71A2.67,2.67,0,0,1,18,65.63Z"/><path class="cls-1" d="M40.53,72.13a2.66,2.66,0,0,1-1.72-.63l-4.41-3.71a2.67,2.67,0,0,1,3.44-4.08l4.41,3.71a2.67,2.67,0,0,1-1.72,4.71Z"/><path class="cls-1" d="M73,89.29a2.66,2.66,0,0,1-1-.18l-7.19-2.78a2.67,2.67,0,1,1,1.93-5L74,84.14a2.67,2.67,0,0,1-1,5.16Z"/><path class="cls-1" d="M79.26,82.57a2.66,2.66,0,0,1-1-.18L71.11,79.6a2.67,2.67,0,1,1,1.93-5l7.19,2.78a2.67,2.67,0,0,1-1,5.16Z"/><path class="cls-1" d="M112,87.9h-9a2.67,2.67,0,1,1,0-5.33h9a2.67,2.67,0,1,1,0,5.33Z"/><path class="cls-1" d="M108.48,80.94H108a2.67,2.67,0,1,1,0-5.33h.46a2.67,2.67,0,1,1,0,5.33Z"/><path class="cls-1" d="M59.78,84a2.66,2.66,0,0,1-1-.19l-2.32-.93a2.67,2.67,0,0,1,2-5l2.32.93a2.67,2.67,0,0,1-1,5.14Z"/><path class="cls-1" d="M88.3,91.61a2.66,2.66,0,0,1-1-.19L85,90.49a2.67,2.67,0,0,1,2-5l2.32.93a2.67,2.67,0,0,1-1,5.14Z"/></svg>