<svg id="Layer_1" data-name="Layer 1" xmlns="http://www.w3.org/2000/svg" viewBox="0 0 125.28 24"><defs><style>.cls-1{fill:#fcee21;}</style></defs><title>Artboard 1</title><polygon class="cls-1" points="12.64 0 15.84 8.8 25.28 9.12 17.92 15.04 20.32 24 12.64 18.72 4.8 24 7.36 15.04 0 9.12 9.28 8.8 12.64 0"/><polygon class="cls-1" points="37.64 0 40.84 8.8 50.28 9.12 42.92 15.04 45.32 24 37.64 18.72 29.8 24 32.36 15.04 25 9.12 34.28 8.8 37.64 0"/><polygon class="cls-1" points="62.64 0 65.84 8.8 75.28 9.12 67.92 15.04 70.32 24 62.64 18.72 54.8 24 57.36 15.04 50 9.12 59.28 8.8 62.64 0"/><polygon class="cls-1" points="87.64 0 90.84 8.8 100.28 9.12 92.92 15.04 95.32 24 87.64 18.72 79.8 24 82.36 15.04 75 9.12 84.28 8.8 87.64 0"/><polygon class="cls-1" points="112.64 0 115.84 8.8 125.28 9.12 117.92 15.04 120.32 24 112.64 18.72 104.8 24 107.36 15.04 100 9.12 109.28 8.8 112.64 0"/></svg>